<?xml version="1.0" encoding="UTF-8"?>
<!-- Generator: Adobe Illustrator 15.1.0, SVG Export Plug-In  -->
<!DOCTYPE svg PUBLIC "-//W3C//DTD SVG 1.1//EN" "http://www.w3.org/Graphics/SVG/1.1/DTD/svg11.dtd" [
	<!ENTITY ns_flows "http://ns.adobe.com/Flows/1.0/">
]>
<svg version="1.1" xmlns="http://www.w3.org/2000/svg" xmlns:xlink="http://www.w3.org/1999/xlink" xmlns:a="http://ns.adobe.com/AdobeSVGViewerExtensions/3.0/" x="0px" y="0px" width="433px" height="307px" viewBox="-10.83 -8.095 433 307" enable-background="new -10.83 -8.095 433 307" xml:space="preserve">
<defs>
</defs>
<path fill-rule="evenodd" clip-rule="evenodd" fill="#5A5A5A" d="M343.012,12.532c-0.167-0.167,0.133-0.8,0-1"/>
<path fill-rule="evenodd" clip-rule="evenodd" fill="#5A5A5A" d="M260.012,105.532c0.134-0.2-0.167-0.833,0-1s0.8,0.133,1,0  c0,0.333,0,0.667,0,1C260.679,105.532,260.345,105.532,260.012,105.532z"/>
<path fill-rule="evenodd" clip-rule="evenodd" fill="#5A5A5A" d="M261.012,105.532c0-0.333,0-0.667,0-1c0.333,0,0.667,0,1,0  c-0.134,0.2,0.167,0.833,0,1S261.212,105.399,261.012,105.532z"/>
<path fill-rule="evenodd" clip-rule="evenodd" fill="#5A5A5A" d="M262.012,104.532c12,0,24,0,36,0s24,0,36,0s24,0,36,0  c6,0,12,0,18,0c1.333,0,2.667,0,4,0c0.667,0,1.333,0,2,0c1,0,2,0,3,0c1.333,0,2.667,0,4,0c0.667,0,1.333,0,2,0c1.333,0,2.667,0,4,0  c0.133,0.2-0.167,0.833,0,1s0.8-0.133,1,0c0.333,0,0.667,0,1,0s0.667,0,1,0c0.133,0.2-0.167,0.833,0,1s0.8-0.133,1,0  c0.133,0.2-0.167,0.833,0,1s0.8-0.133,1,0c0,0.333,0,0.667,0,1c0.333,0,0.667,0,1,0c0,0.333,0,0.667,0,1s0,0.667,0,1s0,0.667,0,1  c0.333,0,0.667,0,1,0c0,14.333,0,28.667,0,43c0,7,0,14,0,21s0,14,0,21c0,14,0,28,0,42s0,28,0,42c-0.2,0.134-0.833-0.167-1,0  s0.134,0.8,0,1c0,0.333,0,0.667,0,1s0,0.667,0,1c-0.2,0.134-0.833-0.167-1,0s0.134,0.8,0,1c-0.2,0.134-0.833-0.167-1,0  s0.134,0.8,0,1c-0.333,0-0.667,0-1,0c0,0.333,0,0.667,0,1c-0.333,0-0.667,0-1,0s-0.667,0-1,0c-0.2,0.134-0.833-0.167-1,0  s0.134,0.8,0,1c-12.333,0-24.667,0-37,0c-12,0-24,0-36,0s-24,0-36,0s-24,0-36,0c-0.134-0.2,0.167-0.833,0-1s-0.8,0.134-1,0  c-0.333,0-0.667,0-1,0s-0.667,0-1,0c-0.134-0.2,0.167-0.833,0-1s-0.8,0.134-1,0c-0.134-0.2,0.167-0.833,0-1s-0.8,0.134-1,0  c0-0.333,0-0.667,0-1c-0.333,0-0.667,0-1,0c0-0.333,0-0.667,0-1s0-0.667,0-1c-0.134-0.2,0.167-0.833,0-1s-0.8,0.134-1,0  c0-1.333,0-2.667,0-4c0-1,0-2,0-3c0-0.667,0-1.333,0-2c0-1,0-2,0-3c0-0.667,0-1.333,0-2c0-1,0-2,0-3c0-0.667,0-1.333,0-2  c0-1,0-2,0-3c0-7,0-14,0-21s0-14,0-21s0-14,0-21c0-14,0-28,0-42s0-28,0-42c0.2-0.133,0.833,0.167,1,0s-0.134-0.8,0-1  c0-0.333,0-0.667,0-1s0-0.667,0-1c0.2-0.133,0.833,0.167,1,0s-0.134-0.8,0-1c0.2-0.133,0.833,0.167,1,0s-0.134-0.8,0-1  c0.333,0,0.667,0,1,0c0-0.333,0-0.667,0-1c0.333,0,0.667,0,1,0s0.667,0,1,0c0.2-0.133,0.833,0.167,1,0  S261.878,104.732,262.012,104.532z M276.012,160.532c0,11.667,0,23.333,0,35c0,2.667,0,5.333,0,8c0,3,0,6,0,9c0,6,0,12,0,18  c0,12,0,24,0,36c4.667,0,9.333,0,14,0c17,0,34,0,51,0c17.333,0,34.667,0,52,0c0-2.667,0-5.333,0-8c0-5.333,0-10.667,0-16  c0-2.667,0-5.333,0-8c0-3,0-6,0-9c0-5.333,0-10.667,0-16c0-2.667,0-5.333,0-8c0-3,0-6,0-9c0-22.333,0-44.667,0-67  c-4.667,0-9.333,0-14,0c-8.333,0-16.667,0-25,0c-4.333,0-8.667,0-13,0s-8.667,0-13,0s-8.667,0-13,0s-8.667,0-13,0s-8.667,0-13,0  s-8.667,0-13,0C276.012,137.199,276.012,148.865,276.012,160.532z"/>
<path fill-rule="evenodd" clip-rule="evenodd" fill="#5A5A5A" d="M407.012,104.532c0.333,0,0.667,0,1,0c0,0.333,0,0.667,0,1  c-0.2-0.133-0.833,0.167-1,0S407.145,104.732,407.012,104.532z"/>
<path fill-rule="evenodd" clip-rule="evenodd" fill="#5A5A5A" d="M408.012,105.532c0-0.333,0-0.667,0-1c0.2,0.133,0.833-0.167,1,0  s-0.133,0.8,0,1C408.679,105.532,408.345,105.532,408.012,105.532z"/>
<path fill-rule="evenodd" clip-rule="evenodd" fill="#5A5A5A" d="M258.012,106.532c0.134-0.2-0.167-0.833,0-1s0.8,0.133,1,0  c0,0.333,0,0.667,0,1C258.679,106.532,258.345,106.532,258.012,106.532z"/>
<path fill-rule="evenodd" clip-rule="evenodd" fill="#5A5A5A" d="M410.012,105.532c0.2,0.133,0.833-0.167,1,0s-0.133,0.8,0,1  c-0.2-0.133-0.833,0.167-1,0S410.145,105.732,410.012,105.532z"/>
<path fill-rule="evenodd" clip-rule="evenodd" fill="#5A5A5A" d="M257.012,107.532c0.134-0.2-0.167-0.833,0-1s0.8,0.133,1,0  c-0.134,0.2,0.167,0.833,0,1S257.212,107.399,257.012,107.532z"/>
<path fill-rule="evenodd" clip-rule="evenodd" fill="#5A5A5A" d="M411.012,106.532c0.2,0.133,0.833-0.167,1,0s-0.133,0.8,0,1  c-0.2-0.133-0.833,0.167-1,0S411.145,106.732,411.012,106.532z"/>
<path fill-rule="evenodd" clip-rule="evenodd" fill="#5A5A5A" d="M256.012,108.532c0-0.333,0-0.667,0-1c0.333,0,0.667,0,1,0  c-0.134,0.2,0.167,0.833,0,1S256.212,108.399,256.012,108.532z"/>
<path fill-rule="evenodd" clip-rule="evenodd" fill="#5A5A5A" d="M412.012,107.532c0.2,0.133,0.833-0.167,1,0s-0.133,0.8,0,1  c-0.333,0-0.667,0-1,0C412.012,108.199,412.012,107.866,412.012,107.532z"/>
<path fill-rule="evenodd" clip-rule="evenodd" fill="#5A5A5A" d="M255.012,110.532c0.134-0.2-0.167-0.833,0-1s0.8,0.133,1,0  c0,0.333,0,0.667,0,1C255.679,110.532,255.345,110.532,255.012,110.532z"/>
<path fill-rule="evenodd" clip-rule="evenodd" fill="#5A5A5A" d="M413.012,110.532c0-0.333,0-0.667,0-1c0.333,0,0.667,0,1,0  c0,0.333,0,0.667,0,1C413.679,110.532,413.345,110.532,413.012,110.532z"/>
<path fill-rule="evenodd" clip-rule="evenodd" fill="#5A5A5A" d="M255.012,111.532c0-0.333,0-0.667,0-1c0.333,0,0.667,0,1,0  c-0.134,0.2,0.167,0.833,0,1S255.212,111.399,255.012,111.532z"/>
<path fill-rule="evenodd" clip-rule="evenodd" fill="#5A5A5A" d="M413.012,110.532c0.333,0,0.667,0,1,0c0,0.333,0,0.667,0,1  c-0.333,0-0.667,0-1,0C413.012,111.199,413.012,110.866,413.012,110.532z"/>
<path fill-rule="evenodd" clip-rule="evenodd" fill="#5A5A5A" d="M147.012,245.532c0.133-0.2-0.167-0.833,0-1s0.8,0.134,1,0  c-0.133,0.2,0.167,0.833,0,1S147.212,245.398,147.012,245.532z"/>
<path fill-rule="evenodd" clip-rule="evenodd" fill="#5A5A5A" d="M148.012,244.532c10.667,0,21.333,0,32,0c5.333,0,10.667,0,16,0  c2.667,0,5.333,0,8,0c3,0,6,0,9,0c0,0.333,0,0.667,0,1c0.2,0.134,0.833-0.167,1,0s-0.134,0.8,0,1c0.333,0,0.667,0,1,0  c0,0.667,0,1.333,0,2c0,0.333,0,0.667,0,1s0,0.667,0,1c0.333,0,0.667,0,1,0c0,0.333,0,0.667,0,1s0,0.667,0,1  c0.134,0.2-0.167,0.833,0,1s0.8-0.134,1,0c0,0.667,0,1.333,0,2c0,0.333,0,0.667,0,1s0,0.667,0,1c0.333,0,0.667,0,1,0  c0,0.667,0,1.333,0,2c0,0.333,0,0.667,0,1s0,0.667,0,1c0.333,0,0.667,0,1,0c0,0.333,0,0.667,0,1s0,0.667,0,1  c0.134,0.2-0.167,0.833,0,1s0.8-0.134,1,0c0,0.667,0,1.333,0,2c0,0.333,0,0.667,0,1s0,0.667,0,1c0.333,0,0.667,0,1,0  c0,0.333,0,0.667,0,1s0,0.667,0,1c0.134,0.2-0.167,0.833,0,1s0.8-0.134,1,0c0,0.333,0,0.667,0,1c0.123,0.251-0.154,0.77,0,1  c0.106,0.16,0.86-0.14,1,0c0.167,0.167-0.134,0.8,0,1c0.333,0,0.667,0,1,0c0,0.667,0,1.333,0,2c0,0.333,0,0.667,0,1s0,0.667,0,1  c0.333,0,0.667,0,1,0c0,0.667,0,1.333,0,2c0,0.333,0,0.667,0,1s0,0.667,0,1c-0.2,0.134-0.833-0.167-1,0s0.134,0.8,0,1  c0,0.333,0,0.667,0,1c-0.2,0.134-0.833-0.167-1,0s0.134,0.8,0,1c-0.333,0-0.667,0-1,0c0,0.333,0,0.667,0,1c-0.667,0-1.333,0-2,0  c-0.333,0-0.667,0-1,0s-0.667,0-1,0c-0.2,0.134-0.833-0.167-1,0s0.134,0.8,0,1c-2,0-4,0-6,0c-0.134-0.2,0.167-0.833,0-1  c-0.088-0.088-0.862,0-1,0c-0.333,0-0.667,0-1,0c-1.333,0-2.667,0-4,0c-5.667,0-11.333,0-17,0c-3,0-6,0-9,0c-2.667,0-5.333,0-8,0  c-3,0-6,0-9,0c-2.667,0-5.333,0-8,0c-5.333,0-10.667,0-16,0c-0.333,0-0.667,0-1,0c0-0.333,0-0.667,0-1c-0.133-0.2,0.167-0.833,0-1  s-0.8,0.134-1,0c0-0.333,0-0.667,0-1s0-0.667,0-1c0-0.667,0-1.333,0-2c0.2-0.134,0.833,0.167,1,0s-0.133-0.8,0-1  c0-0.333,0-0.667,0-1c0-1,0-2,0-3c0.2-0.134,0.833,0.167,1,0s-0.133-0.8,0-1s-0.167-0.833,0-1s0.8,0.134,1,0c0-0.333,0-0.667,0-1  c0-1,0-2,0-3c0.2-0.134,0.833,0.167,1,0s-0.133-0.8,0-1c0-1,0-2,0-3c0.333,0,0.667,0,1,0c0.2-0.134,0.833,0.167,1,0s-0.133-0.8,0-1  c0-1,0-2,0-3c0.2-0.134,0.833,0.167,1,0s-0.133-0.8,0-1c0-1,0-2,0-3c0.2-0.134,0.833,0.167,1,0c0.122-0.122-0.044-0.822,0-1  c0.071-0.284,0-0.706,0-1c0-0.667,0-1.333,0-2c0.2-0.134,0.833,0.167,1,0s-0.133-0.8,0-1c0-0.333,0-0.667,0-1s0-0.667,0-1  c0.2-0.134,0.833,0.167,1,0s-0.133-0.8,0-1c0-0.333,0-0.667,0-1c0.2-0.134,0.833,0.167,1,0s-0.133-0.8,0-1c0-0.333,0-0.667,0-1  s0-0.667,0-1c0.2-0.134,0.833,0.167,1,0S147.878,244.732,148.012,244.532z"/>
<path fill-rule="evenodd" clip-rule="evenodd" fill="#5A5A5A" d="M146.012,247.532c0.133-0.2-0.167-0.833,0-1s0.8,0.134,1,0  c0,0.333,0,0.667,0,1C146.678,247.532,146.345,247.532,146.012,247.532z"/>
<path fill-rule="evenodd" clip-rule="evenodd" fill="#5A5A5A" d="M146.012,248.532c0-0.333,0-0.667,0-1c0.333,0,0.667,0,1,0  c-0.133,0.2,0.167,0.833,0,1S146.212,248.398,146.012,248.532z"/>
<path fill-rule="evenodd" clip-rule="evenodd" fill="#5A5A5A" d="M215.012,249.532c0-0.333,0-0.667,0-1c0.2,0.134,0.833-0.167,1,0  s-0.134,0.8,0,1C215.679,249.532,215.345,249.532,215.012,249.532z"/>
<path fill-rule="evenodd" clip-rule="evenodd" fill="#5A5A5A" d="M145.012,250.532c0.133-0.2-0.167-0.833,0-1s0.8,0.134,1,0  c-0.133,0.2,0.167,0.833,0,1S145.212,250.398,145.012,250.532z"/>
<path fill-rule="evenodd" clip-rule="evenodd" fill="#5A5A5A" d="M215.012,249.532c0.333,0,0.667,0,1,0c0,0.333,0,0.667,0,1  c-0.333,0-0.667,0-1,0C215.012,250.199,215.012,249.865,215.012,249.532z"/>
<path fill-rule="evenodd" clip-rule="evenodd" fill="#5A5A5A" d="M144.012,252.532c0.133-0.2-0.167-0.833,0-1s0.8,0.134,1,0  c0,0.333,0,0.667,0,1C144.678,252.532,144.345,252.532,144.012,252.532z"/>
<path fill-rule="evenodd" clip-rule="evenodd" fill="#5A5A5A" d="M216.012,252.532c0-0.333,0-0.667,0-1c0.333,0,0.667,0,1,0  c0,0.333,0,0.667,0,1C216.679,252.532,216.345,252.532,216.012,252.532z"/>
<path fill-rule="evenodd" clip-rule="evenodd" fill="#5A5A5A" d="M144.012,253.532c0-0.333,0-0.667,0-1c0.333,0,0.667,0,1,0  c-0.133,0.2,0.167,0.833,0,1S144.212,253.398,144.012,253.532z"/>
<path fill-rule="evenodd" clip-rule="evenodd" fill="#5A5A5A" d="M216.012,252.532c0.333,0,0.667,0,1,0c0,0.333,0,0.667,0,1  c-0.2-0.134-0.833,0.167-1,0S216.146,252.732,216.012,252.532z"/>
<path fill-rule="evenodd" clip-rule="evenodd" fill="#5A5A5A" d="M217.012,256.532c0-0.333,0-0.667,0-1c0.333,0,0.667,0,1,0  c0,0.333,0,0.667,0,1C217.679,256.532,217.345,256.532,217.012,256.532z"/>
<path fill-rule="evenodd" clip-rule="evenodd" fill="#5A5A5A" d="M217.012,256.532c0.333,0,0.667,0,1,0c0,0.333,0,0.667,0,1  c-0.333,0-0.667,0-1,0C217.012,257.199,217.012,256.865,217.012,256.532z"/>
<path fill-rule="evenodd" clip-rule="evenodd" fill="#5A5A5A" d="M143.012,257.532c0,1,0,2,0,3c-0.333,0-0.667,0-1,0c0-1,0-2,0-3  C142.345,257.532,142.678,257.532,143.012,257.532z"/>
<path fill-rule="evenodd" clip-rule="evenodd" fill="#5A5A5A" d="M218.012,260.532c0-0.333,0-0.667,0-1c0.2,0.134,0.833-0.167,1,0  s-0.134,0.8,0,1C218.679,260.532,218.345,260.532,218.012,260.532z"/>
<path fill-rule="evenodd" clip-rule="evenodd" fill="#5A5A5A" d="M142.012,261.532c0-0.333,0-0.667,0-1c0.333,0,0.667,0,1,0  c-0.133,0.2,0.167,0.833,0,1S142.212,261.398,142.012,261.532z"/>
<path fill-rule="evenodd" clip-rule="evenodd" fill="#5A5A5A" d="M218.012,260.532c0.333,0,0.667,0,1,0c0,0.333,0,0.667,0,1  c-0.333,0-0.667,0-1,0C218.012,261.199,218.012,260.865,218.012,260.532z"/>
<path fill-rule="evenodd" clip-rule="evenodd" fill="#5A5A5A" d="M142.012,261.532c0,1,0,2,0,3c-0.333,0-0.667,0-1,0c0-1,0-2,0-3  C141.345,261.532,141.678,261.532,142.012,261.532z"/>
<path fill-rule="evenodd" clip-rule="evenodd" fill="#5A5A5A" d="M219.012,263.532c0-0.333,0-0.667,0-1c0.333,0,0.667,0,1,0  c0,0.333,0,0.667,0,1C219.679,263.532,219.345,263.532,219.012,263.532z"/>
<path fill-rule="evenodd" clip-rule="evenodd" fill="#5A5A5A" d="M219.012,263.532c0.333,0,0.667,0,1,0c0,0.333,0,0.667,0,1  c-0.2-0.134-0.833,0.167-1,0S219.146,263.732,219.012,263.532z"/>
<path fill-rule="evenodd" clip-rule="evenodd" fill="#5A5A5A" d="M140.012,265.532c0.133-0.2-0.167-0.833,0-1s0.8,0.134,1,0  c0,0.333,0,0.667,0,1C140.678,265.532,140.345,265.532,140.012,265.532z"/>
<path fill-rule="evenodd" clip-rule="evenodd" fill="#5A5A5A" d="M141.012,265.532c0-0.333,0-0.667,0-1c0.333,0,0.667,0,1,0  c-0.133,0.2,0.167,0.833,0,1S141.212,265.398,141.012,265.532z"/>
<path fill-rule="evenodd" clip-rule="evenodd" fill="#5A5A5A" d="M220.012,267.532c0-0.333,0-0.667,0-1c0.2,0.134,0.833-0.167,1,0  s-0.134,0.8,0,1C220.679,267.532,220.345,267.532,220.012,267.532z"/>
<path fill-rule="evenodd" clip-rule="evenodd" fill="#5A5A5A" d="M220.012,267.532c0.333,0,0.667,0,1,0c0,0.333,0,0.667,0,1  c-0.333,0-0.667,0-1,0C220.012,268.199,220.012,267.865,220.012,267.532z"/>
<path fill-rule="evenodd" clip-rule="evenodd" fill="#5A5A5A" d="M139.012,269.532c0.133-0.2-0.167-0.833,0-1s0.8,0.134,1,0  c-0.133,0.2,0.167,0.833,0,1S139.212,269.398,139.012,269.532z"/>
<path fill-rule="evenodd" clip-rule="evenodd" fill="#5A5A5A" d="M221.012,270.532c0-0.333,0-0.667,0-1c0.2,0.134,0.833-0.167,1,0  s-0.134,0.8,0,1C221.679,270.532,221.345,270.532,221.012,270.532z"/>
<path fill-rule="evenodd" clip-rule="evenodd" fill="#5A5A5A" d="M221.012,270.532c0.333,0,0.667,0,1,0c0,0.333,0,0.667,0,1  c-0.2-0.134-0.833,0.167-1,0S221.146,270.732,221.012,270.532z"/>
<path fill-rule="evenodd" clip-rule="evenodd" fill="#5A5A5A" d="M137.012,275.532c0-0.333,0-0.667,0-1c0.333,0,0.667,0,1,0  c-0.133,0.2,0.167,0.833,0,1S137.212,275.398,137.012,275.532z"/>
<path fill-rule="evenodd" clip-rule="evenodd" fill="#5A5A5A" d="M224.012,277.532c0-0.333,0-0.667,0-1c0.333,0,0.667,0,1,0  c0,0.333,0,0.667,0,1C224.679,277.532,224.345,277.532,224.012,277.532z"/>
<path fill-rule="evenodd" clip-rule="evenodd" fill="#5A5A5A" d="M224.012,277.532c0.333,0,0.667,0,1,0c0,0.333,0,0.667,0,1  c-0.333,0-0.667,0-1,0C224.012,278.199,224.012,277.865,224.012,277.532z"/>
<path fill-rule="evenodd" clip-rule="evenodd" fill="#5A5A5A" d="M136.012,279.532c0.133-0.2-0.167-0.833,0-1s0.8,0.134,1,0  c0,0.333,0,0.667,0,1C136.678,279.532,136.345,279.532,136.012,279.532z"/>
<path fill-rule="evenodd" clip-rule="evenodd" fill="#5A5A5A" d="M136.012,280.532c0-0.333,0-0.667,0-1c0.333,0,0.667,0,1,0  c-0.133,0.2,0.167,0.833,0,1S136.212,280.398,136.012,280.532z"/>
<path fill-rule="evenodd" clip-rule="evenodd" fill="#5A5A5A" d="M136.012,280.532c0,0.667,0,1.333,0,2c-0.333,0-0.667,0-1,0  c0-0.333,0-0.667,0-1c0-0.138-0.088-0.912,0-1C135.178,280.365,135.812,280.666,136.012,280.532z"/>
<path fill-rule="evenodd" clip-rule="evenodd" fill="#5A5A5A" d="M225.012,281.532c0-0.333,0-0.667,0-1c0.2,0.134,0.833-0.167,1,0  s-0.134,0.8,0,1C225.679,281.532,225.345,281.532,225.012,281.532z"/>
<path fill-rule="evenodd" clip-rule="evenodd" fill="#5A5A5A" d="M255.012,281.532c0-0.333,0-0.667,0-1c0.2,0.134,0.833-0.167,1,0  s-0.134,0.8,0,1C255.679,281.532,255.345,281.532,255.012,281.532z"/>
<path fill-rule="evenodd" clip-rule="evenodd" fill="#5A5A5A" d="M413.012,281.532c0.134-0.2-0.167-0.833,0-1s0.8,0.134,1,0  c0,0.333,0,0.667,0,1C413.679,281.532,413.345,281.532,413.012,281.532z"/>
<path fill-rule="evenodd" clip-rule="evenodd" fill="#5A5A5A" d="M225.012,282.532c0-0.333,0-0.667,0-1c0.333,0,0.667,0,1,0  c0,0.333,0,0.667,0,1C225.679,282.532,225.345,282.532,225.012,282.532z"/>
<path fill-rule="evenodd" clip-rule="evenodd" fill="#5A5A5A" d="M255.012,281.532c0.333,0,0.667,0,1,0c0,0.333,0,0.667,0,1  c-0.2-0.134-0.833,0.167-1,0S255.146,281.732,255.012,281.532z"/>
<path fill-rule="evenodd" clip-rule="evenodd" fill="#5A5A5A" d="M413.012,282.532c0-0.333,0-0.667,0-1c0.333,0,0.667,0,1,0  c0,0.333,0,0.667,0,1C413.679,282.532,413.345,282.532,413.012,282.532z"/>
<path fill-rule="evenodd" clip-rule="evenodd" fill="#5A5A5A" d="M135.012,282.532c0.333,0,0.667,0,1,0c0,0.333,0,0.667,0,1  c-0.2-0.134-0.833,0.167-1,0S135.145,282.732,135.012,282.532z"/>
<path fill-rule="evenodd" clip-rule="evenodd" fill="#5A5A5A" d="M224.012,283.532c0.134-0.2-0.167-0.833,0-1s0.8,0.134,1,0  c0,0.333,0,0.667,0,1C224.679,283.532,224.345,283.532,224.012,283.532z"/>
<path fill-rule="evenodd" clip-rule="evenodd" fill="#5A5A5A" d="M225.012,283.532c0-0.333,0-0.667,0-1c0.333,0,0.667,0,1,0  c0,0.333,0,0.667,0,1C225.679,283.532,225.345,283.532,225.012,283.532z"/>
<path fill-rule="evenodd" clip-rule="evenodd" fill="#5A5A5A" d="M1.012,283.532c0.2,0.134,0.833-0.167,1,0s-0.133,0.8,0,1  c-0.333,0-0.667,0-1,0C1.012,284.199,1.012,283.865,1.012,283.532z"/>
<path fill-rule="evenodd" clip-rule="evenodd" fill="#5A5A5A" d="M224.012,284.532c0-0.333,0-0.667,0-1c0.333,0,0.667,0,1,0  c-0.134,0.2,0.167,0.833,0,1S224.212,284.398,224.012,284.532z"/>
<path fill-rule="evenodd" clip-rule="evenodd" fill="#5A5A5A" d="M256.012,283.532c0.333,0,0.667,0,1,0c0,0.333,0,0.667,0,1  c-0.2-0.134-0.833,0.167-1,0S256.146,283.732,256.012,283.532z"/>
<path fill-rule="evenodd" clip-rule="evenodd" fill="#5A5A5A" d="M412.012,284.532c0.134-0.2-0.167-0.833,0-1s0.8,0.134,1,0  c-0.134,0.2,0.167,0.833,0,1S412.212,284.398,412.012,284.532z"/>
<path fill-rule="evenodd" clip-rule="evenodd" fill="#5A5A5A" d="M136.012,284.532c0.2,0.134,0.833-0.167,1,0s-0.133,0.8,0,1  c-0.2-0.134-0.833,0.167-1,0S136.145,284.732,136.012,284.532z"/>
<path fill-rule="evenodd" clip-rule="evenodd" fill="#5A5A5A" d="M223.012,285.532c0.134-0.2-0.167-0.833,0-1s0.8,0.134,1,0  c-0.134,0.2,0.167,0.833,0,1S223.212,285.398,223.012,285.532z"/>
<path fill-rule="evenodd" clip-rule="evenodd" fill="#5A5A5A" d="M257.012,284.532c0.2,0.134,0.833-0.167,1,0s-0.134,0.8,0,1  c-0.2-0.134-0.833,0.167-1,0S257.146,284.732,257.012,284.532z"/>
<path fill-rule="evenodd" clip-rule="evenodd" fill="#5A5A5A" d="M411.012,285.532c0.134-0.2-0.167-0.833,0-1s0.8,0.134,1,0  c-0.134,0.2,0.167,0.833,0,1S411.212,285.398,411.012,285.532z"/>
<path fill-rule="evenodd" clip-rule="evenodd" fill="#5A5A5A" d="M222.012,286.532c0-0.333,0-0.667,0-1c0.333,0,0.667,0,1,0  c-0.134,0.2,0.167,0.833,0,1S222.212,286.398,222.012,286.532z"/>
<path fill-rule="evenodd" clip-rule="evenodd" fill="#5A5A5A" d="M258.012,285.532c0.2,0.134,0.833-0.167,1,0s-0.134,0.8,0,1  c-0.333,0-0.667,0-1,0C258.012,286.199,258.012,285.865,258.012,285.532z"/>
<path fill-rule="evenodd" clip-rule="evenodd" fill="#5A5A5A" d="M410.012,286.532c0-0.333,0-0.667,0-1c0.333,0,0.667,0,1,0  c-0.134,0.2,0.167,0.833,0,1S410.212,286.398,410.012,286.532z"/>
<path fill-rule="evenodd" clip-rule="evenodd" fill="#5A5A5A" d="M137.012,287.532c0-0.333,0-0.667,0-1c0.333,0,0.667,0,1,0  c0,0.333,0,0.667,0,1C137.678,287.532,137.345,287.532,137.012,287.532z"/>
<path fill-rule="evenodd" clip-rule="evenodd" fill="#5A5A5A" d="M138.012,287.532c0-0.333,0-0.667,0-1c5.333,0,10.667,0,16,0  c2.667,0,5.333,0,8,0c3,0,6,0,9,0c2.667,0,5.333,0,8,0c3,0,6,0,9,0c5.667,0,11.333,0,17,0c0,0.333,0,0.667,0,1  c-5.667,0-11.333,0-17,0c-3,0-6,0-9,0c-2.667,0-5.333,0-8,0c-3,0-6,0-9,0c-2.667,0-5.333,0-8,0  C148.678,287.532,143.345,287.532,138.012,287.532z"/>
<path fill-rule="evenodd" clip-rule="evenodd" fill="#5A5A5A" d="M205.012,287.532c0-0.333,0-0.667,0-1c1.333,0,2.667,0,4,0  c0,0.333,0,0.667,0,1C207.679,287.532,206.345,287.532,205.012,287.532z"/>
<path fill-rule="evenodd" clip-rule="evenodd" fill="#5A5A5A" d="M209.012,287.532c0-0.333,0-0.667,0-1c0.333,0,0.667,0,1,0  c0.138,0,0.912-0.088,1,0c0.167,0.167-0.134,0.8,0,1C210.345,287.532,209.679,287.532,209.012,287.532z"/>
<path fill-rule="evenodd" clip-rule="evenodd" fill="#5A5A5A" d="M217.012,287.532c0.134-0.2-0.167-0.833,0-1s0.8,0.134,1,0  c0,0.333,0,0.667,0,1C217.679,287.532,217.345,287.532,217.012,287.532z"/>
<path fill-rule="evenodd" clip-rule="evenodd" fill="#5A5A5A" d="M218.012,287.532c0-0.333,0-0.667,0-1c0.333,0,0.667,0,1,0  c0,0.333,0,0.667,0,1C218.679,287.532,218.345,287.532,218.012,287.532z"/>
<path fill-rule="evenodd" clip-rule="evenodd" fill="#5A5A5A" d="M219.012,287.532c0-0.333,0-0.667,0-1c0.333,0,0.667,0,1,0  c0,0.333,0,0.667,0,1C219.679,287.532,219.345,287.532,219.012,287.532z"/>
<path fill-rule="evenodd" clip-rule="evenodd" fill="#5A5A5A" d="M260.012,287.532c0-0.333,0-0.667,0-1c0.333,0,0.667,0,1,0  c0,0.333,0,0.667,0,1C260.679,287.532,260.345,287.532,260.012,287.532z"/>
<path fill-rule="evenodd" clip-rule="evenodd" fill="#5A5A5A" d="M261.012,287.532c0-0.333,0-0.667,0-1c0.2,0.134,0.833-0.167,1,0  s-0.134,0.8,0,1C261.679,287.532,261.345,287.532,261.012,287.532z"/>
<path fill-rule="evenodd" clip-rule="evenodd" fill="#5A5A5A" d="M407.012,287.532c0.134-0.2-0.167-0.833,0-1s0.8,0.134,1,0  c0,0.333,0,0.667,0,1C407.679,287.532,407.345,287.532,407.012,287.532z"/>
<path fill-rule="evenodd" clip-rule="evenodd" fill="#5A5A5A" d="M408.012,287.532c0-0.333,0-0.667,0-1c0.333,0,0.667,0,1,0  c0,0.333,0,0.667,0,1C408.679,287.532,408.345,287.532,408.012,287.532z"/>
<path fill-rule="evenodd" clip-rule="evenodd" fill="#5A5A5A" d="M222.012,272.532c0.333,0,0.667,0,1,0c0.134,0.2-0.167,0.833,0,1  c0.14,0.14,0.894-0.16,1,0c0.154,0.23-0.123,0.749,0,1c-0.333,0-0.667,0-1,0c-0.134-0.2,0.167-0.833,0-1c-0.14-0.14-0.894,0.16-1,0  C221.857,273.302,222.135,272.783,222.012,272.532z"/>
<path fill-rule="evenodd" clip-rule="evenodd" fill="#5A5A5A" d="M213.012,244.532c0.333,0,0.667,0,1,0c0.134,0.2-0.167,0.833,0,1  c0.14,0.14,0.894-0.16,1,0c0.154,0.23-0.123,0.749,0,1c-0.333,0-0.667,0-1,0c-0.134-0.2,0.167-0.833,0-1s-0.8,0.134-1,0  C213.012,245.199,213.012,244.865,213.012,244.532z"/>
<path fill-rule="evenodd" clip-rule="evenodd" fill="#5A5A5A" d="M137.012,274.532c0-0.333,0-0.667,0-1c0.2-0.134,0.833,0.167,1,0  c0.14-0.14-0.16-0.894,0-1c0.231-0.154,0.749,0.123,1,0c0,0.333,0,0.667,0,1c-0.2,0.134-0.833-0.167-1,0s0.133,0.8,0,1  C137.678,274.532,137.345,274.532,137.012,274.532z"/>
<path fill-rule="evenodd" clip-rule="evenodd" fill="#5A5A5A" d="M343.012,15.421c-0.167-0.171,0.133-0.822,0-1.028v-3.084  c-0.2-0.137-0.833,0.171-1,0s0.133-0.822,0-1.028V8.225h-1V7.197c-0.2-0.137-0.833,0.171-1,0c-0.167-0.171,0.133-0.822,0-1.028  c-0.2-0.137-0.833,0.171-1,0c-0.167-0.171,0.133-0.822,0-1.028c-0.133-0.206,0.167-0.857,0-1.028c-0.167-0.171-0.8,0.137-1,0h-1  V3.084c-0.2-0.137-0.833,0.171-1,0c-0.167-0.171,0.133-0.822,0-1.028h-1c-0.2-0.137-0.833,0.171-1,0s0.133-0.822,0-1.028h-3  c-0.2-0.137-0.833,0.171-1,0c-0.167-0.171,0.133-0.822,0-1.028h-298C32,0.017,32,0.044,31.994,0.067  c-0.014,0-0.027-0.002-0.042-0.002L32.012,0c-7.738,0-14,6.897-14,15.421l0.03-0.032c0,0.006,0.002,0.012,0.003,0.018  c-0.001,0.005-0.002,0.009-0.002,0.014h-0.03v174.777h21V21.59h284v83.276h21V15.421C343.812,15.284,343.179,15.593,343.012,15.421z  "/>
<path fill-rule="evenodd" clip-rule="evenodd" fill="#5A5A5A" d="M60.012,281.08v-42.028c0.017-0.001,0.034-0.004,0.052-0.006v0.052  h194.948v-22.131H60.063v0.029c-0.018,0-0.034,0.008-0.052,0.009v-23.473c0-3.316-2.684-6-6-6H5.49c-0.004,0-0.006-0.002-0.01-0.002  s-0.006,0.002-0.01,0.002H5.012l-0.961,0.961c-0.102,0.016-0.205,0.027-0.288,0.067c-0.269-0.027-0.63-0.149-0.751-0.028  c-0.167,0.167,0.133,0.8,0,1c-0.2,0.134-0.833-0.167-1,0c-0.109,0.109-0.022,0.416,0.016,0.673c-0.051,0.104-0.084,0.212-0.1,0.327  H1.012v1l-1,1v88.558c-0.016,0.109-0.016,0.215,0,0.324v0.118c0.005,0.003,0.014,0.004,0.021,0.006  c0.016,0.062,0.056,0.11,0.081,0.168c0.002,0.173,0.056,0.337,0.135,0.487c0.358,3.027,3.316,5.391,6.944,5.391v-0.052h45.82  c0.015-0.021,0.01-0.063,0.014-0.095c0.048-0.001,0.083-0.021,0.126-0.026l-0.141,0.121c0.34,0,0.672-0.028,1-0.068v0.068  l0.078-0.078 M60.012,281.647 M17.012,196.532h25v2h-25V196.532z M34.012,275.532v5c-0.2,0.134-0.833-0.167-1,0  c-0.14,0.14,0.16,0.894,0,1c-0.231,0.154-0.749-0.123-1,0h-5c-0.133-0.2,0.167-0.833,0-1c-0.14-0.14-0.894,0.16-1,0  c-0.154-0.23,0.123-0.749,0-1v-4c0.133-0.2-0.167-0.833,0-1c0.069-0.069,0.219-0.058,0.384-0.03l-0.384,0.03h0.565  c0.177,0.031,0.348,0.058,0.435,0c0.133-0.2-0.167-0.833,0-1s0.8,0.134,1,0h4c0.2,0.134,0.833-0.167,1,0s-0.133,0.8,0,1  c0.2,0.134,0.833-0.167,1,0S33.878,275.332,34.012,275.532z M55.012,269.532h-50v-64h50V269.532z"/>
<path fill-rule="evenodd" clip-rule="evenodd" fill="#5A5A5A" d="M54.012,287.464c3.316,0,6-2.855,6-6.384"/>
<polyline fill-rule="evenodd" clip-rule="evenodd" fill="#5A5A5A" points="214.5,244.25 226.785,282.806 225.762,284.835   223.714,285.85 221.613,287.371 219.619,287.879 135.672,287.879 133.385,284.354 133.624,281.791 133.624,280.776 145.909,244.25   213.988,244.251 "/>
<path fill-rule="evenodd" clip-rule="evenodd" fill="#5A5A5A" d="M329.952,0.032l0.093,0.103c-0.041-0.005-0.07-0.023-0.114-0.023  c-1.138,0-1.269,1.551-0.4,1.918c0.147,0.104,0.321,0.181,0.55,0.181c0.635,0,0.953-0.484,0.964-0.977l11.629,12.811  c-0.617,0.045-0.909,0.558-0.876,1.059c-0.02,0.293,0.082,0.584,0.283,0.793c0.149,0.273,0.414,0.481,0.821,0.481  c0.654,0,0.974-0.514,0.964-1.021l0.087,0.095C343.952,6.93,337.69,0.032,329.952,0.032z"/>
<style xmlns="http://www.w3.org/1999/xhtml" charset="utf-8" type="text/css" class="firebugResetStyles">/* See license.txt for terms of usage */
/** reset styling **/
.firebugResetStyles {
    z-index: 2147483646 !important;
    top: 0 !important;
    left: 0 !important;
    display: block !important;
    border: 0 none !important;
    margin: 0 !important;
    padding: 0 !important;
    outline: 0 !important;
    min-width: 0 !important;
    max-width: none !important;
    min-height: 0 !important;
    max-height: none !important;
    position: fixed !important;
    transform: rotate(0deg) !important;
    transform-origin: 50% 50% !important;
    border-radius: 0 !important;
    box-shadow: none !important;
    background: transparent none !important;
    pointer-events: none !important;
    white-space: normal !important;
}
style.firebugResetStyles {
    display: none !important;
}

.firebugBlockBackgroundColor {
    background-color: transparent !important;
}

.firebugResetStyles:before, .firebugResetStyles:after {
    content: "" !important;
}
/**actual styling to be modified by firebug theme**/
.firebugCanvas {
    display: none !important;
}

/* * * * * * * * * * * * * * * * * * * * * * * * * * * * * * * * * * * * * * * * * * * * * * * * */
.firebugLayoutBox {
    width: auto !important;
    position: static !important;
}

.firebugLayoutBoxOffset {
    opacity: 0.8 !important;
    position: fixed !important;
}

.firebugLayoutLine {
    opacity: 0.4 !important;
    background-color: #000000 !important;
}

.firebugLayoutLineLeft, .firebugLayoutLineRight {
    width: 1px !important;
    height: 100% !important;
}

.firebugLayoutLineTop, .firebugLayoutLineBottom {
    width: 100% !important;
    height: 1px !important;
}

.firebugLayoutLineTop {
    margin-top: -1px !important;
    border-top: 1px solid #999999 !important;
}

.firebugLayoutLineRight {
    border-right: 1px solid #999999 !important;
}

.firebugLayoutLineBottom {
    border-bottom: 1px solid #999999 !important;
}

.firebugLayoutLineLeft {
    margin-left: -1px !important;
    border-left: 1px solid #999999 !important;
}

/* * * * * * * * * * * * * * * * * * * * * * * * * * * * * * * * * * * * * * * * * * * * * * * * */
.firebugLayoutBoxParent {
    border-top: 0 none !important;
    border-right: 1px dashed #E00 !important;
    border-bottom: 1px dashed #E00 !important;
    border-left: 0 none !important;
    position: fixed !important;
    width: auto !important;
}

.firebugRuler{
    position: absolute !important;
}

.firebugRulerH {
    top: -15px !important;
    left: 0 !important;
    width: 100% !important;
    height: 14px !important;
    background: url("data:image/png,%89PNG%0D%0A%1A%0A%00%00%00%0DIHDR%00%00%13%88%00%00%00%0E%08%02%00%00%00L%25a%0A%00%00%00%04gAMA%00%00%D6%D8%D4OX2%00%00%00%19tEXtSoftware%00Adobe%20ImageReadyq%C9e%3C%00%00%04%F8IDATx%DA%EC%DD%D1n%E2%3A%00E%D1%80%F8%FF%EF%E2%AF2%95%D0D4%0E%C1%14%B0%8Fa-%E9%3E%CC%9C%87n%B9%81%A6W0%1C%A6i%9A%E7y%0As8%1CT%A9R%A5J%95*U%AAT%A9R%A5J%95*U%AAT%A9R%A5J%95*U%AAT%A9R%A5J%95*U%AAT%A9R%A5J%95*U%AAT%A9R%A5J%95*U%AAT%A9R%A5J%95*U%AATE9%FE%FCw%3E%9F%AF%2B%2F%BA%97%FDT%1D~K(%5C%9D%D5%EA%1B%5C%86%B5%A9%BDU%B5y%80%ED%AB*%03%FAV9%AB%E1%CEj%E7%82%EF%FB%18%BC%AEJ8%AB%FA'%D2%BEU9%D7U%ECc0%E1%A2r%5DynwVi%CFW%7F%BB%17%7Dy%EACU%CD%0E%F0%FA%3BX%FEbV%FEM%9B%2B%AD%BE%AA%E5%95v%AB%AA%E3E5%DCu%15rV9%07%B5%7F%B5w%FCm%BA%BE%AA%FBY%3D%14%F0%EE%C7%60%0EU%AAT%A9R%A5J%95*U%AAT%A9R%A5J%95*U%AAT%A9R%A5J%95*U%AAT%A9R%A5J%95*U%AAT%A9R%A5JU%88%D3%F5%1F%AE%DF%3B%1B%F2%3E%DAUCNa%F92%D02%AC%7Dm%F9%3A%D4%F2%8B6%AE*%BF%5C%C2Ym~9g5%D0Y%95%17%7C%C8c%B0%7C%18%26%9CU%CD%13i%F7%AA%90%B3Z%7D%95%B4%C7%60%E6E%B5%BC%05%B4%FBY%95U%9E%DB%FD%1C%FC%E0%9F%83%7F%BE%17%7DkjMU%E3%03%AC%7CWj%DF%83%9An%BCG%AE%F1%95%96yQ%0Dq%5Dy%00%3Et%B5'%FC6%5DS%95pV%95%01%81%FF'%07%00%00%00%00%00%00%00%00%00%F8x%C7%F0%BE%9COp%5D%C9%7C%AD%E7%E6%EBV%FB%1E%E0(%07%E5%AC%C6%3A%ABi%9C%8F%C6%0E9%AB%C0'%D2%8E%9F%F99%D0E%B5%99%14%F5%0D%CD%7F%24%C6%DEH%B8%E9rV%DFs%DB%D0%F7%00k%FE%1D%84%84%83J%B8%E3%BA%FB%EF%20%84%1C%D7%AD%B0%8E%D7U%C8Y%05%1E%D4t%EF%AD%95Q%BF8w%BF%E9%0A%BF%EB%03%00%00%00%00%00%00%00%00%00%B8vJ%8E%BB%F5%B1u%8Cx%80%E1o%5E%CA9%AB%CB%CB%8E%03%DF%1D%B7T%25%9C%D5(%EFJM8%AB%CC'%D2%B2*%A4s%E7c6%FB%3E%FA%A2%1E%80~%0E%3E%DA%10x%5D%95Uig%15u%15%ED%7C%14%B6%87%A1%3B%FCo8%A8%D8o%D3%ADO%01%EDx%83%1A~%1B%9FpP%A3%DC%C6'%9C%95gK%00%00%00%00%00%00%00%00%00%20%D9%C9%11%D0%C0%40%AF%3F%EE%EE%92%94%D6%16X%B5%BCMH%15%2F%BF%D4%A7%C87%F1%8E%F2%81%AE%AAvzr%DA2%ABV%17%7C%E63%83%E7I%DC%C6%0Bs%1B%EF6%1E%00%00%00%00%00%00%00%00%00%80cr%9CW%FF%7F%C6%01%0E%F1%CE%A5%84%B3%CA%BC%E0%CB%AA%84%CE%F9%BF)%EC%13%08WU%AE%AB%B1%AE%2BO%EC%8E%CBYe%FE%8CN%ABr%5Dy%60~%CFA%0D%F4%AE%D4%BE%C75%CA%EDVB%EA(%B7%F1%09g%E5%D9%12%00%00%00%00%00%00%00%00%00H%F6%EB%13S%E7y%5E%5E%FB%98%F0%22%D1%B2'%A7%F0%92%B1%BC%24z3%AC%7Dm%60%D5%92%B4%7CEUO%5E%F0%AA*%3BU%B9%AE%3E%A0j%94%07%A0%C7%A0%AB%FD%B5%3F%A0%F7%03T%3Dy%D7%F7%D6%D4%C0%AAU%D2%E6%DFt%3F%A8%CC%AA%F2%86%B9%D7%F5%1F%18%E6%01%F8%CC%D5%9E%F0%F3z%88%AA%90%EF%20%00%00%00%00%00%00%00%00%00%C0%A6%D3%EA%CFi%AFb%2C%7BB%0A%2B%C3%1A%D7%06V%D5%07%A8r%5D%3D%D9%A6%CAu%F5%25%CF%A2%99%97zNX%60%95%AB%5DUZ%D5%FBR%03%AB%1C%D4k%9F%3F%BB%5C%FF%81a%AE%AB'%7F%F3%EA%FE%F3z%94%AA%D8%DF%5B%01%00%00%00%00%00%00%00%00%00%8E%FB%F3%F2%B1%1B%8DWU%AAT%A9R%A5J%95*U%AAT%A9R%A5J%95*U%AAT%A9R%A5J%95*U%AAT%A9R%A5J%95*U%AAT%A9R%A5J%95*U%AAT%A9R%A5J%95*U%AAT%A9R%A5J%95*UiU%C7%BBe%E7%F3%B9%CB%AAJ%95*U%AAT%A9R%A5J%95*U%AAT%A9R%A5J%95*U%AAT%A9R%A5J%95*U%AAT%A9R%A5J%95*U%AAT%A9R%A5J%95*U%AAT%A9R%A5J%95*U%AAT%A9R%A5*%AAj%FD%C6%D4%5Eo%90%B5Z%ADV%AB%D5j%B5Z%ADV%AB%D5j%B5Z%ADV%AB%D5j%B5Z%ADV%AB%D5j%B5Z%ADV%AB%D5j%B5Z%ADV%AB%D5j%B5Z%ADV%AB%D5j%B5%86%AF%1B%9F%98%DA%EBm%BBV%AB%D5j%B5Z%ADV%AB%D5j%B5Z%ADV%AB%D5j%B5Z%ADV%AB%D5j%B5Z%ADV%AB%D5j%B5Z%ADV%AB%D5j%B5Z%ADV%AB%D5j%B5Z%AD%D6%E4%F58%01%00%00%00%00%00%00%00%00%00%00%00%00%00%40%85%7F%02%0C%008%C2%D0H%16j%8FX%00%00%00%00IEND%AEB%60%82") repeat-x !important;
    border-top: 1px solid #BBBBBB !important;
    border-right: 1px dashed #BBBBBB !important;
    border-bottom: 1px solid #000000 !important;
}

.firebugRulerV {
    top: 0 !important;
    left: -15px !important;
    width: 14px !important;
    height: 100% !important;
    background: url("data:image/png,%89PNG%0D%0A%1A%0A%00%00%00%0DIHDR%00%00%00%0E%00%00%13%88%08%02%00%00%00%0E%F5%CB%10%00%00%00%04gAMA%00%00%D6%D8%D4OX2%00%00%00%19tEXtSoftware%00Adobe%20ImageReadyq%C9e%3C%00%00%06~IDATx%DA%EC%DD%D1v%A20%14%40Qt%F1%FF%FF%E4%97%D9%07%3BT%19%92%DC%40(%90%EEy%9A5%CB%B6%E8%F6%9Ac%A4%CC0%84%FF%DC%9E%CF%E7%E3%F1%88%DE4%F8%5D%C7%9F%2F%BA%DD%5E%7FI%7D%F18%DDn%BA%C5%FB%DF%97%BFk%F2%10%FF%FD%B4%F2M%A7%FB%FD%FD%B3%22%07p%8F%3F%AE%E3%F4S%8A%8F%40%EEq%9D%BE8D%F0%0EY%A1Uq%B7%EA%1F%81%88V%E8X%3F%B4%CEy%B7h%D1%A2E%EBohU%FC%D9%AF2fO%8BBeD%BE%F7X%0C%97%A4%D6b7%2Ck%A5%12%E3%9B%60v%B7r%C7%1AI%8C%BD%2B%23r%00c0%B2v%9B%AD%CA%26%0C%1Ek%05A%FD%93%D0%2B%A1u%8B%16-%95q%5Ce%DCSO%8E%E4M%23%8B%F7%C2%FE%40%BB%BD%8C%FC%8A%B5V%EBu%40%F9%3B%A72%FA%AE%8C%D4%01%CC%B5%DA%13%9CB%AB%E2I%18%24%B0n%A9%0CZ*Ce%9C%A22%8E%D8NJ%1E%EB%FF%8F%AE%CAP%19*%C3%BAEKe%AC%D1%AAX%8C*%DEH%8F%C5W%A1e%AD%D4%B7%5C%5B%19%C5%DB%0D%EF%9F%19%1D%7B%5E%86%BD%0C%95%A12%AC%5B*%83%96%CAP%19%F62T%86%CAP%19*%83%96%CA%B8Xe%BC%FE)T%19%A1%17xg%7F%DA%CBP%19*%C3%BA%A52T%86%CAP%19%F62T%86%CA%B0n%A9%0CZ%1DV%C6%3D%F3%FCH%DE%B4%B8~%7F%5CZc%F1%D6%1F%AF%84%F9%0F6%E6%EBVt9%0E~%BEr%AF%23%B0%97%A12T%86%CAP%19%B4T%86%CA%B8Re%D8%CBP%19*%C3%BA%A52huX%19%AE%CA%E5%BC%0C%7B%19*CeX%B7h%A9%0C%95%E1%BC%0C%7B%19*CeX%B7T%06%AD%CB%5E%95%2B%BF.%8F%C5%97%D5%E4%7B%EE%82%D6%FB%CF-%9C%FD%B9%CF%3By%7B%19%F62T%86%CA%B0n%D1R%19*%A3%D3%CA%B0%97%A12T%86uKe%D0%EA%B02*%3F1%99%5DB%2B%A4%B5%F8%3A%7C%BA%2B%8Co%7D%5C%EDe%A8%0C%95a%DDR%19%B4T%C66%82fA%B2%ED%DA%9FC%FC%17GZ%06%C9%E1%B3%E5%2C%1A%9FoiB%EB%96%CA%A0%D5qe4%7B%7D%FD%85%F7%5B%ED_%E0s%07%F0k%951%ECr%0D%B5C%D7-g%D1%A8%0C%EB%96%CA%A0%A52T%C6)*%C3%5E%86%CAP%19%D6-%95A%EB*%95q%F8%BB%E3%F9%AB%F6%E21%ACZ%B7%22%B7%9B%3F%02%85%CB%A2%5B%B7%BA%5E%B7%9C%97%E1%BC%0C%EB%16-%95%A12z%AC%0C%BFc%A22T%86uKe%D0%EA%B02V%DD%AD%8A%2B%8CWhe%5E%AF%CF%F5%3B%26%CE%CBh%5C%19%CE%CB%B0%F3%A4%095%A1%CAP%19*Ce%A8%0C%3BO*Ce%A8%0C%95%A12%3A%AD%8C%0A%82%7B%F0v%1F%2FD%A9%5B%9F%EE%EA%26%AF%03%CA%DF9%7B%19*Ce%A8%0C%95%A12T%86%CA%B8Ze%D8%CBP%19*Ce%A8%0C%95%D1ae%EC%F7%89I%E1%B4%D7M%D7P%8BjU%5C%BB%3E%F2%20%D8%CBP%19*Ce%A8%0C%95%A12T%C6%D5*%C3%5E%86%CAP%19*Ce%B4O%07%7B%F0W%7Bw%1C%7C%1A%8C%B3%3B%D1%EE%AA%5C%D6-%EBV%83%80%5E%D0%CA%10%5CU%2BD%E07YU%86%CAP%19*%E3%9A%95%91%D9%A0%C8%AD%5B%EDv%9E%82%FFKOee%E4%8FUe%A8%0C%95%A12T%C6%1F%A9%8C%C8%3D%5B%A5%15%FD%14%22r%E7B%9F%17l%F8%BF%ED%EAf%2B%7F%CF%ECe%D8%CBP%19*Ce%A8%0C%95%E1%93~%7B%19%F62T%86%CAP%19*Ce%A8%0C%E7%13%DA%CBP%19*Ce%A8%0CZf%8B%16-Z%B4h%D1R%19f%8B%16-Z%B4h%D1R%19%B4%CC%16-Z%B4h%D1R%19%B4%CC%16-Z%B4h%D1%A2%A52%CC%16-Z%B4h%D1%A2%A52h%99-Z%B4h%D1%A2%A52h%99-Z%B4h%D1%A2EKe%98-Z%B4h%D1%A2EKe%D02%5B%B4h%D1%A2EKe%D02%5B%B4h%D1%A2E%8B%96%CA0%5B%B4h%D1%A2E%8B%96%CA%A0e%B6h%D1%A2E%8B%96%CA%A0e%B6h%D1%A2E%8B%16-%95a%B6h%D1%A2E%8B%16-%95A%CBl%D1%A2E%8B%16-%95A%CBl%D1%A2E%8B%16-Z*%C3l%D1%A2E%8B%16-Z*%83%96%D9%A2E%8B%16-Z*%83%96%D9%A2E%8B%16-Z%B4T%86%D9%A2E%8B%16-Z%B4T%06-%B3E%8B%16-Z%B4T%06-%B3E%8B%16-Z%B4h%A9%0C%B3E%8B%16-Z%B4h%A9%0CZf%8B%16-Z%B4h%A9%0CZf%8B%16-Z%B4h%D1R%19f%8B%16-Z%B4h%D1R%19%B4%CC%16-Z%B4h%D1R%19%B4%CC%16-Z%B4h%D1%A2%A52%CC%16-Z%B4h%D1%A2%A52h%99-Z%B4h%D1%A2%A52h%99-Z%B4h%D1%A2EKe%98-Z%B4h%D1%A2EKe%D02%5B%B4h%D1%A2EKe%D02%5B%B4h%D1%A2E%8B%96%CA0%5B%B4h%D1%A2E%8B%96%CA%A0e%B6h%D1%A2E%8B%96%CA%A0e%B6h%D1%A2E%8B%16-%95a%B6h%D1%A2E%8B%16-%95A%CBl%D1%A2E%8B%16-%95A%CBl%D1%A2E%8B%16-Z*%C3l%D1%A2E%8B%16-Z*%83%96%D9%A2E%8B%16-Z*%83%96%D9%A2E%8B%16-Z%B4T%86%D9%A2E%8B%16-Z%B4T%06-%B3E%8B%16-Z%B4T%06-%B3E%8B%16-Z%B4h%A9%0C%B3E%8B%16-Z%B4h%A9%0CZf%8B%16-Z%B4h%A9%0CZf%8B%16-Z%B4h%D1R%19f%8B%16-Z%B4h%D1R%19%B4%CC%16-Z%B4h%D1R%19%B4%CC%16-Z%B4h%D1%A2%A52%CC%16-Z%B4h%D1%A2%A52h%99-Z%B4h%D1%A2%A52h%99-Z%B4h%D1%A2EKe%98-Z%B4h%D1%A2EKe%D02%5B%B4h%D1%A2EKe%D02%5B%B4h%D1%A2E%8B%96%CA0%5B%B4h%D1%A2E%8B%96%CA%A0e%B6h%D1%A2E%8B%96%CA%A0e%B6h%D1%A2E%8B%16-%95a%B6h%D1%A2E%8B%16-%95A%CBl%D1%A2E%8B%16-%95A%CBl%D1%A2E%8B%16-Z*%C3l%D1%A2E%8B%16-Z*%83%96%D9%A2E%8B%16-Z*%83%96%D9%A2E%8B%16-Z%B4T%86%D9%A2E%8B%16-Z%B4T%06-%B3E%8B%16-Z%B4%AE%A4%F5%25%C0%00%DE%BF%5C'%0F%DA%B8q%00%00%00%00IEND%AEB%60%82") repeat-y !important;
    border-left: 1px solid #BBBBBB !important;
    border-right: 1px solid #000000 !important;
    border-bottom: 1px dashed #BBBBBB !important;
}

.overflowRulerX &gt; .firebugRulerV {
    left: 0 !important;
}

.overflowRulerY &gt; .firebugRulerH {
    top: 0 !important;
}

/* * * * * * * * * * * * * * * * * * * * * * * * * * * * * * * * * * * * * * * * * * * * * * * * */
.fbProxyElement {
    position: fixed !important;
    pointer-events: auto !important;
}
</style></svg>